<svg width="105" height="113" fill="none" xmlns="http://www.w3.org/2000/svg"><path d="M46.809 9.914c24.044 2.257 41.897 17.563 46.638 42.737 4.741 25.174-13.81 47.805-39.006 52.55-25.196 4.745-44.62-37.325-49.362-62.499C.34 17.528 19.716 7.372 46.81 9.914z" fill="#FFF3DB"/><g clip-path="url(#clip0)" fill="#D0935A"><path d="M59.603 40.353l3.573-9.53-2.685-1.007-4.3 11.467a1.436 1.436 0 001.343 1.936h5.733v-2.866h-3.664zm19.431-12.9h-1.433v2.866h1.433a2.87 2.87 0 012.867 2.867 2.87 2.87 0 01-2.867 2.867h-1.433v2.866h1.433a5.739 5.739 0 005.734-5.733 5.74 5.74 0 00-5.734-5.733zm-34.4 2.867h1.434v-2.867h-1.434a5.739 5.739 0 00-5.733 5.733 5.74 5.74 0 005.733 5.733h1.434v-2.866h-1.434a2.87 2.87 0 01-2.866-2.867 2.87 2.87 0 012.866-2.867z"/><path d="M60.401 40.352h-5.733c-4.743 0-8.6 3.858-8.6 8.6 0 .793.642 1.434 1.433 1.434h5.733c4.743 0 8.6-3.857 8.6-8.6 0-.791-.642-1.434-1.433-1.434zm-7.167 7.167h-4.12a5.747 5.747 0 015.554-4.3h4.119a5.747 5.747 0 01-5.553 4.3z"/><path d="M66.134 40.352h-5.733c-.791 0-1.433.643-1.433 1.434 0 4.743 3.857 8.6 8.6 8.6H73.3c.793 0 1.433-.64 1.433-1.434 0-4.742-3.857-8.6-8.6-8.6zm1.433 7.167a5.744 5.744 0 01-5.552-4.3h4.12a5.742 5.742 0 015.55 4.3h-4.118zM53.234 36.053a2.867 2.867 0 100-5.734 2.867 2.867 0 000 5.734zm15.767 0a2.867 2.867 0 100-5.734 2.867 2.867 0 000 5.734z"/><path d="M71.868 14.553H69c-.475 0-.919.234-1.186.627l-.494.727a6.596 6.596 0 01-5.485 2.945 6.598 6.598 0 01-5.496-2.955l-.487-.717a1.433 1.433 0 00-1.186-.628H51.8a7.175 7.175 0 00-7.167 7.167v18.633a17.315 17.315 0 001.564 7.176l2.606-1.194a14.42 14.42 0 01-1.303-5.982V21.72c0-2.37 1.93-4.3 4.3-4.3h2.108l.05.078a9.453 9.453 0 0015.738.011l.06-.089h2.109c2.37 0 4.3 1.93 4.3 4.3v18.633c0 7.904-6.43 14.334-14.333 14.334h-.003c-4.66 0-9.043-2.275-11.722-6.085l-2.345 1.649a17.216 17.216 0 0014.067 7.302h.004c9.484 0 17.2-7.715 17.2-17.2V21.72c0-3.951-3.215-7.167-7.166-7.167z"/><path d="M75.61 10.475a15.85 15.85 0 00-12.342-5.956H60.4a15.854 15.854 0 00-12.344 5.956 12.856 12.856 0 00-8.333 13.238l.616 6.737 2.856-.261-.616-6.734a9.999 9.999 0 016.81-10.41c.275-.092.516-.267.69-.5a12.963 12.963 0 0110.32-5.16h2.868c4.037 0 7.896 1.93 10.32 5.16.174.233.415.408.69.5a9.997 9.997 0 016.81 10.407l-.616 6.737 2.855.26.616-6.739a12.85 12.85 0 00-8.333-13.235z"/><path d="M73.3 24.586H50.369v2.867H73.3v-2.867zM51.802 53.253v5.357a2.287 2.287 0 01-1.966 2.25l-8.344 1.106c-6.38.854-11.191 6.35-11.191 12.787v15.766h2.867V74.753c0-5.007 3.74-9.283 8.703-9.945l8.347-1.105a5.168 5.168 0 004.45-5.09v-5.36h-2.866zm30.373 8.713L73.84 60.86a2.285 2.285 0 01-1.97-2.248v-5.36h-2.868v5.363a5.167 5.167 0 004.457 5.087l8.337 1.105c4.964.662 8.705 4.938 8.705 9.945v15.766h2.867V74.752c0-6.435-4.81-11.933-11.193-12.786zM44.634 79.053h-2.866v11.466h2.866V79.053zm37.267 0h-2.867v11.466h2.867V79.053z"/><path d="M70.788 60.908l-8.954 10.234L52.88 60.91l-2.157 1.886 10.033 11.467a1.429 1.429 0 002.158-.002l10.033-11.467-2.159-1.886z"/><path d="M61.6 71.905l-7.506 1.251-5.283-11.887-2.618 1.166 5.733 12.9a1.433 1.433 0 001.545.831l8.6-1.433-.472-2.828z"/><path d="M74.859 61.27l-5.283 11.886-7.505-1.252-.472 2.828 8.6 1.434a1.438 1.438 0 001.546-.831l5.734-12.9-2.62-1.166z"/><path d="M63.268 73.32H60.4v17.2h2.867v-17.2zm-20.067 8.6H31.734c-.79 0-1.433.64-1.433 1.433v7.166h2.867v-5.733h8.6v5.733h2.866v-7.166c0-.793-.642-1.434-1.433-1.434zm48.733 0H80.468c-.793 0-1.434.64-1.434 1.433v7.166h2.867v-5.733h8.6v5.733h2.867v-7.166c0-.793-.641-1.434-1.434-1.434zm-35.116-4.3c-1.186 0-2.15.964-2.15 2.15 0 1.185.964 2.15 2.15 2.15 1.185 0 2.15-.965 2.15-2.15 0-1.186-.965-2.15-2.15-2.15zm0 2.866a.718.718 0 010-1.433c.395 0 .716.322.716.716a.718.718 0 01-.716.717z"/></g><defs><clipPath id="clip0"><path fill="#fff" transform="translate(18.834 4.52)" d="M0 0h86v86H0z"/></clipPath></defs></svg>