<svg width="112" height="112" fill="none" xmlns="http://www.w3.org/2000/svg"><path d="M30.375 24.816c18.137-10.055 38.19-7.87 53.716 7.656 15.526 15.526 13.31 40.54-2.26 56.11-15.57 15.569-49.67-4.803-65.197-20.329C1.108 52.727 9.94 36.145 30.374 24.816z" fill="#E7F1F2"/><path d="M40.792 41.864a72.338 72.338 0 003.84-1.728A58.924 58.924 0 0048.6 37.96a60.533 60.533 0 003.648-2.496 26.005 26.005 0 003.2-2.816h6.657V77h-9.536V45.064a31.202 31.202 0 01-4.288 2.368 63.538 63.538 0 01-4.608 1.792l-2.88-7.36z" fill="#5FB5BF"/></svg>