<svg width="102" height="113" fill="none" xmlns="http://www.w3.org/2000/svg"><path d="M46.809 9.914c24.044 2.257 41.897 17.563 46.638 42.737 4.741 25.174-13.81 47.805-39.006 52.55-25.196 4.745-44.62-37.325-49.362-62.499C.34 17.528 19.716 7.372 46.81 9.914z" fill="#FFF3DB"/><path d="M74.2 51.066v29.621a33.6 33.6 0 00-21.132 8.48l-1.068.95-1.067-.95A33.597 33.597 0 0029.8 80.69V52.3h-2.467v29.6a1.236 1.236 0 001.234 1.233h.01a31.148 31.148 0 0120.716 7.877l1.887 1.678a1.231 1.231 0 001.639 0l1.887-1.678a31.147 31.147 0 0120.717-7.877h.01a1.235 1.235 0 001.233-1.233V51.066H74.2z" fill="#D0935A"/><path d="M88.442 42.636L52.676 19.203a1.231 1.231 0 00-1.352 0L15.557 42.636a1.234 1.234 0 000 2.063l35.767 23.433a1.24 1.24 0 001.352 0l35.766-23.434a1.232 1.232 0 000-2.062zM52 65.626L18.484 43.667 52 21.707l33.516 21.96L52 65.627z" fill="#D0935A"/><path d="M52 37.5c-2.04 0-3.7 1.66-3.7 3.7s1.66 3.7 3.7 3.7 3.7-1.66 3.7-3.7-1.66-3.7-3.7-3.7zm0 4.933a1.234 1.234 0 010-2.466 1.234 1.234 0 010 2.466z" fill="#D0935A"/><path d="M83.096 46.162l-28.367-6.167-.525 2.41L81.6 48.36v28.605h2.467v-29.6c0-.579-.405-1.081-.971-1.204z" fill="#D0935A"/><path d="M82.833 75.733c-2.04 0-3.7 1.66-3.7 3.7V81.9c0 .682.552 1.233 1.234 1.233H85.3c.682 0 1.233-.551 1.233-1.233v-2.467c0-2.04-1.66-3.7-3.7-3.7zm1.234 4.933H81.6v-1.233a1.234 1.234 0 012.467 0v1.233z" fill="#D0935A"/><path d="M88.963 91.468L86.496 81.6l-2.391.597 2.081 8.335H79.48l2.081-8.335-2.39-.597-2.468 9.867A1.231 1.231 0 0077.9 93h9.866c.38 0 .74-.174.972-.475.235-.299.317-.688.225-1.057z" fill="#D0935A"/></svg>