<svg width="107" height="99" fill="none" xmlns="http://www.w3.org/2000/svg"><path d="M104.053 61.077C97.386 84.289 79.04 99 53.423 99 27.808 99 9 76.581 9 50.942 9 25.304 53.938 14 79.555 14c25.617 0 32.011 20.923 24.498 47.077z" fill="#FFF3DB"/><path d="M78.36 63.75H67.733V47.812a14.626 14.626 0 00-14.609-14.609H39.771a5.958 5.958 0 00-.923-5.909v-.898a18.594 18.594 0 00-37.188 0v6.641a18.551 18.551 0 0011.442 17.168c.06.025.12.047.18.07v9.044l-6.564 8.65a6.812 6.812 0 00-4.062 6.232v1.502a1.328 1.328 0 001.328 1.328h9.297a1.329 1.329 0 001.028-.487l11.953-14.61c.194-.236.3-.534.3-.84v-.747a20.38 20.38 0 002.227 1.289l-4.806 6.335a6.842 6.842 0 00-4.061 6.23v1.502a1.328 1.328 0 001.328 1.328h9.297a1.327 1.327 0 001.037-.498L41.811 63.75h1.878l-.468 4.687a7.815 7.815 0 009.673 8.36l3.187-.796a8.265 8.265 0 006.372.68l5.83-1.748.233.351A3.923 3.923 0 0075.1 75.2l.057.085a3.924 3.924 0 007.187-2.176v-5.374a3.988 3.988 0 00-3.985-3.984zM65.077 47.812v2.036a7.963 7.963 0 00-13.281 5.933v5.313H49.14V35.859h3.984a11.966 11.966 0 0111.953 11.953zM4.316 33.038v-6.64A15.937 15.937 0 0136.16 25.4a5.947 5.947 0 00-1.96-.332h-.665v2.657h.664a3.32 3.32 0 110 6.64h-.664v2.657h.664c.519 0 1.035-.068 1.536-.202a15.94 15.94 0 01-16.62 12.114 15.915 15.915 0 01-14.8-15.897zm8.336 41.338h-7.34v-.174a4.155 4.155 0 012.705-3.893c.237-.088.444-.242.596-.443l7.054-9.297c.176-.23.27-.512.27-.802v-8.64a18.524 18.524 0 002.993.459c.07.005.142.007.213.01l.872 1.6a20.17 20.17 0 003.891 5.035v2.39L12.652 74.375zm27.192-12.419l-9.935 12.419h-7.33v-.174a4.17 4.17 0 012.705-3.893c.237-.088.443-.242.595-.443l7.054-9.296c.175-.232.27-.513.27-.803v-6.641h-2.656v6.194l-.116.154a17.566 17.566 0 01-8.083-7.55l-.212-.39c.278-.027.555-.06.827-.1A18.59 18.59 0 0038.632 35.86h7.852v25.235H42.5v-7.969h-2.656v8.831zm12.404 12.265a5.16 5.16 0 01-6.384-5.52l.494-4.951h5.439v5.004a8.235 8.235 0 001.79 5.132l-1.339.335zm19.532.154a1.27 1.27 0 01-.768-.26l1.963-.59a1.267 1.267 0 01-1.195.85zm7.907-1.267a1.267 1.267 0 01-2.321.703l-1.886-2.829a1.328 1.328 0 00-1.487-.535l-12.304 3.69a5.62 5.62 0 01-7.236-5.383V55.781a5.313 5.313 0 0110.625 0v9.297a1.328 1.328 0 001.328 1.328H78.36a1.33 1.33 0 011.329 1.328v5.374z" fill="#D0935A"/><path d="M9.629 35.693a2.656 2.656 0 100-5.312 2.656 2.656 0 000 5.312zm15.937 0a2.656 2.656 0 100-5.312 2.656 2.656 0 000 5.312zm-7.968 6.641a3.989 3.989 0 003.984-3.984h-2.656a1.328 1.328 0 11-2.656 0h-2.657a3.989 3.989 0 003.985 3.984zm.015-16.023a1.328 1.328 0 001.773-1.49l-.219-1.153a4.266 4.266 0 01.801-3.473 4.06 4.06 0 013.011-1.561l-.151-2.652a6.767 6.767 0 00-4.953 2.578 6.894 6.894 0 00-1.444 4.18 3.577 3.577 0 01-.939-1.195c-.63-1.244-.727-2.655-.253-3.681l-2.413-1.113c-.816 1.772-.706 4.012.296 5.993 1.083 2.14 2.813 2.936 4.491 3.567z" fill="#D0935A"/><path d="M104.053 61.077C97.386 84.289 79.04 99 53.423 99 27.808 99 9 76.581 9 50.942 9 25.304 53.938 14 79.555 14c25.617 0 32.011 20.923 24.498 47.077z" fill="#FFF3DB"/><path d="M78.36 63.75H67.733V47.812a14.626 14.626 0 00-14.609-14.609H39.771a5.958 5.958 0 00-.923-5.909v-.898a18.594 18.594 0 00-37.188 0v6.641a18.551 18.551 0 0011.442 17.168c.06.025.12.047.18.07v9.044l-6.564 8.65a6.812 6.812 0 00-4.062 6.232v1.502a1.328 1.328 0 001.328 1.328h9.297a1.329 1.329 0 001.028-.487l11.953-14.61c.194-.236.3-.534.3-.84v-.747a20.38 20.38 0 002.227 1.289l-4.806 6.335a6.842 6.842 0 00-4.061 6.23v1.502a1.328 1.328 0 001.328 1.328h9.297a1.327 1.327 0 001.037-.498L41.811 63.75h1.878l-.468 4.687a7.815 7.815 0 009.673 8.36l3.187-.796a8.265 8.265 0 006.372.68l5.83-1.748.233.351A3.923 3.923 0 0075.1 75.2l.057.085a3.924 3.924 0 007.187-2.176v-5.374a3.988 3.988 0 00-3.985-3.984zM65.077 47.812v2.036a7.963 7.963 0 00-13.281 5.933v5.313H49.14V35.859h3.984a11.966 11.966 0 0111.953 11.953zM4.316 33.038v-6.64A15.937 15.937 0 0136.16 25.4a5.947 5.947 0 00-1.96-.332h-.665v2.657h.664a3.32 3.32 0 110 6.64h-.664v2.657h.664c.519 0 1.035-.068 1.536-.202a15.94 15.94 0 01-16.62 12.114 15.915 15.915 0 01-14.8-15.897zm8.336 41.338h-7.34v-.174a4.155 4.155 0 012.705-3.893c.237-.088.444-.242.596-.443l7.054-9.297c.176-.23.27-.512.27-.802v-8.64a18.524 18.524 0 002.993.459c.07.005.142.007.213.01l.872 1.6a20.17 20.17 0 003.891 5.035v2.39L12.652 74.375zm27.192-12.419l-9.935 12.419h-7.33v-.174a4.17 4.17 0 012.705-3.893c.237-.088.443-.242.595-.443l7.054-9.296c.175-.232.27-.513.27-.803v-6.641h-2.656v6.194l-.116.154a17.566 17.566 0 01-8.083-7.55l-.212-.39c.278-.027.555-.06.827-.1A18.59 18.59 0 0038.632 35.86h7.852v25.235H42.5v-7.969h-2.656v8.831zm12.404 12.265a5.16 5.16 0 01-6.384-5.52l.494-4.951h5.439v5.004a8.235 8.235 0 001.79 5.132l-1.339.335zm19.532.154a1.27 1.27 0 01-.768-.26l1.963-.59a1.267 1.267 0 01-1.195.85zm7.907-1.267a1.267 1.267 0 01-2.321.703l-1.886-2.829a1.328 1.328 0 00-1.487-.535l-12.304 3.69a5.62 5.62 0 01-7.236-5.383V55.781a5.313 5.313 0 0110.625 0v9.297a1.328 1.328 0 001.328 1.328H78.36a1.33 1.33 0 011.329 1.328v5.374z" fill="#D0935A"/><path d="M9.629 35.693a2.656 2.656 0 100-5.312 2.656 2.656 0 000 5.312zm15.937 0a2.656 2.656 0 100-5.312 2.656 2.656 0 000 5.312zm-7.968 6.641a3.989 3.989 0 003.984-3.984h-2.656a1.328 1.328 0 11-2.656 0h-2.657a3.989 3.989 0 003.985 3.984zm.015-16.023a1.328 1.328 0 001.773-1.49l-.219-1.153a4.266 4.266 0 01.801-3.473 4.06 4.06 0 013.011-1.561l-.151-2.652a6.767 6.767 0 00-4.953 2.578 6.894 6.894 0 00-1.444 4.18 3.577 3.577 0 01-.939-1.195c-.63-1.244-.727-2.655-.253-3.681l-2.413-1.113c-.816 1.772-.706 4.012.296 5.993 1.083 2.14 2.813 2.936 4.491 3.567z" fill="#D0935A"/></svg>