<svg width="102" height="88" fill="none" xmlns="http://www.w3.org/2000/svg"><path d="M4.938 38.07C12.295 15.068 31.072.91 56.677 1.675c25.605.764 43.735 23.734 42.97 49.362-.765 25.627-46.02 35.584-71.626 34.82C2.415 85.093-3.352 63.988 4.938 38.07z" fill="#FFF3DB"/><g clip-path="url(#clip0)" fill="#D0935A"><path d="M82.927 30.272a1.05 1.05 0 00-.977-.672H72.5v-1.05c0-.58-.47-1.05-1.05-1.05H64.1v-2.1a8.4 8.4 0 00-8.4-8.4h-8.4a8.4 8.4 0 00-8.4 8.4v2.1h-7.35c-.58 0-1.05.47-1.05 1.05v1.05h-9.45a1.05 1.05 0 00-1.05.85v44.3c0 2.9 2.35 5.25 5.25 5.25h52.5c2.9 0 5.25-2.35 5.25-5.25V30.272h-.073zM64.1 29.6h6.3v10.5h-6.3V29.6zM41 25.4a6.3 6.3 0 016.3-6.3h8.4a6.3 6.3 0 016.3 6.3v4.2h-2.1v-4.2a4.2 4.2 0 00-4.2-4.2h-8.4a4.2 4.2 0 00-4.2 4.2v4.2H41v-4.2zm16.8 0v4.2H45.2v-4.2c0-1.16.94-2.1 2.1-2.1h8.4c1.16 0 2.1.94 2.1 2.1zm-25.2 4.2h6.3v10.5h-6.3V29.6zm-7.35 48.3a3.15 3.15 0 01-3.15-3.15V56.9a5.167 5.167 0 003.15 1.05h5.25v5.02a3.15 3.15 0 00-1.05 2.33v4.2c0 .58.47 1.05 1.05 1.05v4.2a5.166 5.166 0 001.05 3.15h-6.3zm13.65-3.15a3.15 3.15 0 11-6.3 0v-2.1h6.3v2.1zm0-4.2h-6.3v-6.3h2.1v3.15h2.1v-3.15h2.1v6.3zm0-8.4h-2.1v-2.1h-2.1v2.1h-2.1v-12.6h6.3v12.6zm1.05 15.75A5.166 5.166 0 0041 74.75v-4.2c.58 0 1.05-.47 1.05-1.05v-4.2A3.15 3.15 0 0041 62.97v-5.02h21v5.02a3.15 3.15 0 00-1.05 2.33v4.2c0 .58.47 1.05 1.05 1.05v4.2a5.166 5.166 0 001.05 3.15h-23.1zm30.45-3.15a3.15 3.15 0 11-6.3 0v-2.1h6.3v2.1zm0-4.2h-6.3v-6.3h2.1v3.15h2.1v-3.15h2.1v6.3zm0-8.4h-2.1v-2.1h-2.1v2.1h-2.1v-12.6h6.3v12.6zm10.5 12.6a3.15 3.15 0 01-3.15 3.15h-6.3a5.166 5.166 0 001.05-3.15v-4.2c.58 0 1.05-.47 1.05-1.05v-4.2a3.15 3.15 0 00-1.05-2.33v-5.02h5.25a5.167 5.167 0 003.15-1.05v17.85zm0-22.05a3.15 3.15 0 01-3.15 3.15H72.5v-6.3h2.1v-2.1H59.9v2.1H62v6.3H41v-6.3h2.1v-2.1H28.4v2.1h2.1v6.3h-5.25a3.15 3.15 0 01-3.15-3.15v-21h8.4v8.4h-2.1v2.1h14.7v-2.1H41v-8.4h21v8.4h-2.1v2.1h14.7v-2.1h-2.1v-8.4h8.4v21z"/><path d="M36.8 55.85h-2.1v2.1h2.1v-2.1zm0-4.2h-2.1v2.1h2.1v-2.1zm31.5 4.2h-2.1v2.1h2.1v-2.1zm0-4.2h-2.1v2.1h2.1v-2.1z"/></g><defs><clipPath id="clip0"><path fill="#fff" transform="translate(20 17)" d="M0 0h63v63H0z"/></clipPath></defs></svg>