<svg width="108" height="98" fill="none" xmlns="http://www.w3.org/2000/svg"><path d="M105.053 60.077C98.386 83.289 80.04 98 54.423 98 28.808 98 10 75.581 10 49.942 10 24.304 54.938 13 80.555 13c25.617 0 32.011 20.923 24.498 47.077z" fill="#5FB5BF" fill-opacity=".12"/><path d="M80.781 55.813h-5.875V49.4a14.539 14.539 0 007.02-9.745h1.793a4.406 4.406 0 004.406-4.406v-2.938a4.407 4.407 0 00-2.938-4.135v-3.208a15.49 15.49 0 00-1.502-6.633A8.803 8.803 0 1069.529 8.87c-.396-.027-.791-.057-1.198-.057h-1.537a16.535 16.535 0 00-16.856 16.156v3.207A4.406 4.406 0 0047 32.313v2.937a4.406 4.406 0 002.938 4.135v4.495a9.211 9.211 0 006.988 8.951l.71-2.85a6.276 6.276 0 01-4.761-6.1v-4.225h.323a14.55 14.55 0 007.02 9.747v6.41h-5.874A10.249 10.249 0 0047 58.912v-.162a5.875 5.875 0 00-5.875-5.875H8.812a5.875 5.875 0 00-5.874 5.875v22.031a5.875 5.875 0 005.874 5.875h8.005l-.643 4.183 2.902.44 2.747-17.841h6.083v17.624h2.938v-4.406h10.281a5.815 5.815 0 002.938-.816v5.222H47V66.094a7.33 7.33 0 015.007-6.927l-1.965 4.912a1.468 1.468 0 001.07 1.985l5.712 1.143-.941 2.827a1.469 1.469 0 00.354 1.504L66.518 81.82c.022.022.053.03.078.051.046.046.095.09.147.13l.016.014c.053.03.108.054.165.075.042.02.08.044.124.06s.052.025.08.034c.277.088.575.088.852 0 .027-.009.052-.024.079-.034.026-.01.082-.04.125-.06.056-.02.112-.046.164-.075l.016-.015c.052-.04.101-.083.147-.129.025-.022.056-.03.078-.051L78.87 71.538a1.468 1.468 0 00.354-1.504l-.941-2.827 5.73-1.143a1.467 1.467 0 001.076-1.985l-1.965-4.912a7.33 7.33 0 015.001 6.927v24.969h2.938v-24.97a10.293 10.293 0 00-10.282-10.28zm-36.719 10.28v14.688a2.937 2.937 0 01-2.937 2.938H30.844v-11.75a1.469 1.469 0 00-1.469-1.469h-8.813a1.469 1.469 0 00-1.45 1.246L17.27 83.719H8.813a2.937 2.937 0 01-2.938-2.938V58.75a2.938 2.938 0 012.938-2.938h32.312a2.937 2.937 0 012.938 2.938v7.344zm40.324-35.07a1.457 1.457 0 01.802 1.29v2.937a1.469 1.469 0 01-1.47 1.469H82.25v-2.497l2.136-3.199zM77.844 5.875a5.875 5.875 0 014.306 9.869 16.907 16.907 0 00-9.64-6.41 5.852 5.852 0 015.334-3.459zM52.875 36.719h-1.469a1.469 1.469 0 01-1.468-1.469v-2.938a1.468 1.468 0 011.468-1.468h1.469v5.875zm.07-8.813l-.07-2.937a13.598 13.598 0 0113.92-13.219h1.536A13.598 13.598 0 0182.25 24.969v3.965l-1.685 2.528a23.195 23.195 0 01-5.688-11.193 1.47 1.47 0 00-2.566-.654 26.797 26.797 0 01-19.366 8.291zm2.938 10.104a10.41 10.41 0 01-.07-1.291v-6.022a29.718 29.718 0 0016.834-7.276 26.12 26.12 0 006.519 10.82l.147.147v2.33c0 .438-.026.875-.08 1.31a11.678 11.678 0 01-6.452 9.216 11.93 11.93 0 01-10.441 0 11.681 11.681 0 01-6.45-9.234h-.007zm18.399 20.67l-2.23 5.945h-8.98l-2.229-5.946a2.938 2.938 0 002.313-2.867v-5.106a14.21 14.21 0 008.813 0v5.106a2.937 2.937 0 002.313 2.867zM58.963 70.102l1.175-3.544a1.47 1.47 0 00-1.105-1.91l-5.612-1.122 1.917-4.776h2.394l6.073 16.197-4.842-4.845zm8.6 6.495l-3.389-9.034h6.777l-3.388 9.034zm8.518-11.944a1.47 1.47 0 00-1.104 1.91l1.175 3.543-4.847 4.847 6.088-16.203h2.394l1.91 4.78-5.616 1.123z" fill="#5FB5BF"/><path d="M52.038 71.217a12.963 12.963 0 00.837 14.485v5.36h2.938v-5.874c0-.344-.12-.676-.34-.94a10.021 10.021 0 01-.912-11.529l-2.523-1.502zm27.275 13.971v5.874h2.937v-5.36a12.963 12.963 0 00.837-14.485l-2.523 1.502a10.022 10.022 0 01-.912 11.529c-.22.264-.34.596-.34.94zM63.156 33.047a2.204 2.204 0 10-4.407 0 2.204 2.204 0 004.407 0zm11.016 2.203a2.203 2.203 0 100-4.406 2.203 2.203 0 000 4.406zm-6.609 7.344a4.406 4.406 0 004.406-4.407H69.03a1.47 1.47 0 01-2.937 0h-2.938a4.406 4.406 0 004.407 4.407zm1.468 42.594h-2.937v2.937h2.937v-2.938zM11.75 58.75H8.812v2.938h2.938V58.75zm0 5.875H8.812v10.281h2.938V64.625z" fill="#5FB5BF"/><path d="M105.053 60.077C98.386 83.289 80.04 98 54.423 98 28.808 98 10 75.581 10 49.942 10 24.304 54.938 13 80.555 13c25.617 0 32.011 20.923 24.498 47.077z" fill="#5FB5BF" fill-opacity=".12"/><path d="M80.781 55.813h-5.875V49.4a14.539 14.539 0 007.02-9.745h1.793a4.406 4.406 0 004.406-4.406v-2.938a4.407 4.407 0 00-2.938-4.135v-3.208a15.49 15.49 0 00-1.502-6.633A8.803 8.803 0 1069.529 8.87c-.396-.027-.791-.057-1.198-.057h-1.537a16.535 16.535 0 00-16.856 16.156v3.207A4.406 4.406 0 0047 32.313v2.937a4.406 4.406 0 002.938 4.135v4.495a9.211 9.211 0 006.988 8.951l.71-2.85a6.276 6.276 0 01-4.761-6.1v-4.225h.323a14.55 14.55 0 007.02 9.747v6.41h-5.874A10.249 10.249 0 0047 58.912v-.162a5.875 5.875 0 00-5.875-5.875H8.812a5.875 5.875 0 00-5.874 5.875v22.031a5.875 5.875 0 005.874 5.875h8.005l-.643 4.183 2.902.44 2.747-17.841h6.083v17.624h2.938v-4.406h10.281a5.815 5.815 0 002.938-.816v5.222H47V66.094a7.33 7.33 0 015.007-6.927l-1.965 4.912a1.468 1.468 0 001.07 1.985l5.712 1.143-.941 2.827a1.469 1.469 0 00.354 1.504L66.518 81.82c.022.022.053.03.078.051.046.046.095.09.147.13l.016.014c.053.03.108.054.165.075.042.02.08.044.124.06s.052.025.08.034c.277.088.575.088.852 0 .027-.009.052-.024.079-.034.026-.01.082-.04.125-.06.056-.02.112-.046.164-.075l.016-.015c.052-.04.101-.083.147-.129.025-.022.056-.03.078-.051L78.87 71.538a1.468 1.468 0 00.354-1.504l-.941-2.827 5.73-1.143a1.467 1.467 0 001.076-1.985l-1.965-4.912a7.33 7.33 0 015.001 6.927v24.969h2.938v-24.97a10.293 10.293 0 00-10.282-10.28zm-36.719 10.28v14.688a2.937 2.937 0 01-2.937 2.938H30.844v-11.75a1.469 1.469 0 00-1.469-1.469h-8.813a1.469 1.469 0 00-1.45 1.246L17.27 83.719H8.813a2.937 2.937 0 01-2.938-2.938V58.75a2.938 2.938 0 012.938-2.938h32.312a2.937 2.937 0 012.938 2.938v7.344zm40.324-35.07a1.457 1.457 0 01.802 1.29v2.937a1.469 1.469 0 01-1.47 1.469H82.25v-2.497l2.136-3.199zM77.844 5.875a5.875 5.875 0 014.306 9.869 16.907 16.907 0 00-9.64-6.41 5.852 5.852 0 015.334-3.459zM52.875 36.719h-1.469a1.469 1.469 0 01-1.468-1.469v-2.938a1.468 1.468 0 011.468-1.468h1.469v5.875zm.07-8.813l-.07-2.937a13.598 13.598 0 0113.92-13.219h1.536A13.598 13.598 0 0182.25 24.969v3.965l-1.685 2.528a23.195 23.195 0 01-5.688-11.193 1.47 1.47 0 00-2.566-.654 26.797 26.797 0 01-19.366 8.291zm2.938 10.104a10.41 10.41 0 01-.07-1.291v-6.022a29.718 29.718 0 0016.834-7.276 26.12 26.12 0 006.519 10.82l.147.147v2.33c0 .438-.026.875-.08 1.31a11.678 11.678 0 01-6.452 9.216 11.93 11.93 0 01-10.441 0 11.681 11.681 0 01-6.45-9.234h-.007zm18.399 20.67l-2.23 5.945h-8.98l-2.229-5.946a2.938 2.938 0 002.313-2.867v-5.106a14.21 14.21 0 008.813 0v5.106a2.937 2.937 0 002.313 2.867zM58.963 70.102l1.175-3.544a1.47 1.47 0 00-1.105-1.91l-5.612-1.122 1.917-4.776h2.394l6.073 16.197-4.842-4.845zm8.6 6.495l-3.389-9.034h6.777l-3.388 9.034zm8.518-11.944a1.47 1.47 0 00-1.104 1.91l1.175 3.543-4.847 4.847 6.088-16.203h2.394l1.91 4.78-5.616 1.123z" fill="#5FB5BF"/><path d="M52.038 71.217a12.963 12.963 0 00.837 14.485v5.36h2.938v-5.874c0-.344-.12-.676-.34-.94a10.021 10.021 0 01-.912-11.529l-2.523-1.502zm27.275 13.971v5.874h2.937v-5.36a12.963 12.963 0 00.837-14.485l-2.523 1.502a10.022 10.022 0 01-.912 11.529c-.22.264-.34.596-.34.94zM63.156 33.047a2.204 2.204 0 10-4.407 0 2.204 2.204 0 004.407 0zm11.016 2.203a2.203 2.203 0 100-4.406 2.203 2.203 0 000 4.406zm-6.609 7.344a4.406 4.406 0 004.406-4.407H69.03a1.47 1.47 0 01-2.937 0h-2.938a4.406 4.406 0 004.407 4.407zm1.468 42.594h-2.937v2.937h2.937v-2.938zM11.75 58.75H8.812v2.938h2.938V58.75zm0 5.875H8.812v10.281h2.938V64.625z" fill="#5FB5BF"/></svg>