<svg width="100" height="94" fill="none" xmlns="http://www.w3.org/2000/svg"><path d="M98.56 73.307c-7.732 26.647-23.77 21.812-53.427 16.646C26.089 86.636 0 75.85 0 46.417 0 16.983 15.43 5 45.133 5c29.703 0 62.138 38.282 53.427 68.307z" fill="#5FB5BF" fill-opacity=".12"/><g clip-path="url(#clip0)" fill="#5FB5BF"><path d="M71.321 51.63h-5.728v-6.617a17.186 17.186 0 008.592-14.866 5.728 5.728 0 002.865-10.683 21.136 21.136 0 00-.63-4.382 8.253 8.253 0 00-10.312-12.89c-9.864-5.03-21.94-1.111-26.97 8.753a20.052 20.052 0 00-2.188 9.178v.802a5.728 5.728 0 002.865 10.655h.071a17.186 17.186 0 008.521 13.433v6.616H42.68c-8.7 0-15.754 7.053-15.754 15.753V86h2.865V67.382a12.89 12.89 0 0110.025-12.56v12.76a5.729 5.729 0 102.864 0V54.494h.716l12.46 16.613a1.432 1.432 0 002.29 0l12.46-16.613h.716V66.08a8.593 8.593 0 00-7.16 8.464v2.864c0 .791.64 1.432 1.432 1.432h4.296v-2.864h-2.864v-1.432a5.728 5.728 0 0111.457 0v1.432h-2.864v2.864h4.296c.79 0 1.432-.64 1.432-1.432v-2.864a8.593 8.593 0 00-7.16-8.464V54.823a12.889 12.889 0 0110.024 12.56V86h2.864V67.382c0-8.7-7.053-15.753-15.753-15.753zM39.815 28.714a2.864 2.864 0 110-5.728v5.728zm4.296 44.396a2.864 2.864 0 11-5.728 0 2.864 2.864 0 015.728 0zM77.05 24.419a2.864 2.864 0 01-2.865 2.864v-5.728a2.864 2.864 0 012.865 2.864zM71.665 2.937a5.4 5.4 0 015.385 5.385 5.328 5.328 0 01-1.647 3.867 20.05 20.05 0 00-6.717-8.32 5.357 5.357 0 012.979-.932zM57 2.937c8.959-.03 16.439 6.826 17.185 15.754h-.859a29.457 29.457 0 01-7.762-10.555 1.432 1.432 0 00-2.721.186c-2.177 8.693-17.944 11.113-22.914 11.657C40.007 10.59 47.61 3 57 2.937zm-14.321 27.21v-7.633c6.172-.93 17.386-3.508 21.567-10.411a30.073 30.073 0 007.075 8.693v9.351c0 7.91-6.412 14.322-14.321 14.322-7.91 0-14.321-6.412-14.321-14.322zM57 67.855L46.975 54.493h2.864c.791 0 1.433-.64 1.433-1.432v-6.73a16.87 16.87 0 0011.456 0v6.73c0 .791.642 1.432 1.433 1.432h2.864L57 67.855z"/><path d="M48.407 27.283a2.864 2.864 0 100-5.728 2.864 2.864 0 000 5.728zm17.186 0a2.864 2.864 0 100-5.728 2.864 2.864 0 000 5.728zm-3.881 6.144a8.292 8.292 0 01-5.9 2.449h-1.676v2.864h1.675a11.14 11.14 0 007.934-3.28l-2.033-2.033zm-3.28-.415v-2.865h-2.306l2.306-6.702-2.72-.916-2.865 8.592c-.144.437-.07.917.2 1.29.253.355.653.576 1.089.6h4.296z"/></g><defs><clipPath id="clip0"><path fill="#fff" transform="translate(14)" d="M0 0h86v86H0z"/></clipPath></defs></svg>