<svg width="105" height="113" fill="none" xmlns="http://www.w3.org/2000/svg"><path d="M49.809 9.914c24.044 2.257 41.897 17.563 46.638 42.737 4.741 25.174-13.81 47.805-39.006 52.55-25.196 4.745-44.62-37.325-49.362-62.499C3.34 17.528 22.716 7.372 49.81 9.914z" fill="#5FB5BF" fill-opacity=".12"/><path d="M87.443 67.348l-7.011-5.617-7.95-21.106a4.4 4.4 0 00-4.12-2.933h-3.829v-1.467a4.4 4.4 0 10-8.8 0v1.467H1.467c-.81 0-1.467.657-1.467 1.466v41.067c0 .81.657 1.467 1.467 1.467h10.398a8.8 8.8 0 0017.336 0h32.531a8.8 8.8 0 0017.336 0h7.465c.81 0 1.467-.657 1.467-1.467V68.492a1.466 1.466 0 00-.557-1.144zM71.588 46.492l5.5 14.666H62.509a.91.91 0 01-.909-.909V47.401a.91.91 0 01.91-.91h9.078zM58.667 36.225a1.467 1.467 0 012.933 0v1.467h-2.933v-1.467zM20.533 86.092a5.867 5.867 0 110-11.733 5.867 5.867 0 010 11.733zm49.867 0a5.867 5.867 0 110-11.734 5.867 5.867 0 010 11.734zm14.667-13.2h-4.4v2.933h4.4v2.933h-5.999a8.8 8.8 0 00-17.336 0h-32.53a8.8 8.8 0 00-17.337 0H2.933v-2.933h7.334v-2.933H2.933v-8.8h52.8v-2.934h-52.8V40.625h65.428a1.467 1.467 0 011.379.953l.748 1.98h-7.979a3.857 3.857 0 00-3.842 3.843V60.25a3.857 3.857 0 003.842 3.843h16.134l6.424 5.104v3.696z" fill="#5FB5BF"/><path d="M60.133 72.892H30.8v2.933h29.333v-2.933zM22 78.758h-2.933v2.934H22v-2.934zm49.867 0h-2.934v2.934h2.934v-2.934zM21.12 45.319l-3.52 2.64v-4.4h-2.933v4.4l-3.52-2.64-1.76 2.346 4.297 3.227-4.297 3.226 1.76 2.347 3.52-2.64v4.4H17.6v-4.4l3.52 2.64 1.76-2.347-4.297-3.226 4.297-3.227-1.76-2.346zM61.6 23.025h-2.933v5.867H61.6v-5.867zm-6.298 6.289l-4.398-4.397-2.074 2.074 4.398 4.398 2.074-2.075zm16.13-2.32l-2.074-2.074-4.397 4.397 2.074 2.074 4.397-4.397zM55.733 47.078a3.534 3.534 0 00-3.52-3.52h-7.626a3.534 3.534 0 00-3.52 3.52v7.627a3.534 3.534 0 003.52 3.52h7.626a3.534 3.534 0 003.52-3.52v-7.627zm-2.933 0v7.627a.587.587 0 01-.587.587h-7.626a.587.587 0 01-.587-.587v-7.627c0-.324.263-.586.587-.586h7.626c.324 0 .587.263.587.587zM22 25.959H0v2.933h22v-2.933zm4.4 5.866H13.2v2.933h13.2v-2.933zm-17.6 0H4.4v2.933h4.4v-2.933z" fill="#5FB5BF"/><path d="M49.809 9.914c24.044 2.257 41.897 17.563 46.638 42.737 4.741 25.174-13.81 47.805-39.006 52.55-25.196 4.745-44.62-37.325-49.362-62.499C3.34 17.528 22.716 7.372 49.81 9.914z" fill="#5FB5BF" fill-opacity=".12"/><path d="M87.443 67.348l-7.011-5.617-7.95-21.106a4.4 4.4 0 00-4.12-2.933h-3.829v-1.467a4.4 4.4 0 10-8.8 0v1.467H1.467c-.81 0-1.467.657-1.467 1.466v41.067c0 .81.657 1.467 1.467 1.467h10.398a8.8 8.8 0 0017.336 0h32.531a8.8 8.8 0 0017.336 0h7.465c.81 0 1.467-.657 1.467-1.467V68.492a1.466 1.466 0 00-.557-1.144zM71.588 46.492l5.5 14.666H62.509a.91.91 0 01-.909-.909V47.401a.91.91 0 01.91-.91h9.078zM58.667 36.225a1.467 1.467 0 012.933 0v1.467h-2.933v-1.467zM20.533 86.092a5.867 5.867 0 110-11.733 5.867 5.867 0 010 11.733zm49.867 0a5.867 5.867 0 110-11.734 5.867 5.867 0 010 11.734zm14.667-13.2h-4.4v2.933h4.4v2.933h-5.999a8.8 8.8 0 00-17.336 0h-32.53a8.8 8.8 0 00-17.337 0H2.933v-2.933h7.334v-2.933H2.933v-8.8h52.8v-2.934h-52.8V40.625h65.428a1.467 1.467 0 011.379.953l.748 1.98h-7.979a3.857 3.857 0 00-3.842 3.843V60.25a3.857 3.857 0 003.842 3.843h16.134l6.424 5.104v3.696z" fill="#5FB5BF"/><path d="M60.133 72.892H30.8v2.933h29.333v-2.933zM22 78.758h-2.933v2.934H22v-2.934zm49.867 0h-2.934v2.934h2.934v-2.934zM21.12 45.319l-3.52 2.64v-4.4h-2.933v4.4l-3.52-2.64-1.76 2.346 4.297 3.227-4.297 3.226 1.76 2.347 3.52-2.64v4.4H17.6v-4.4l3.52 2.64 1.76-2.347-4.297-3.226 4.297-3.227-1.76-2.346zM61.6 23.025h-2.933v5.867H61.6v-5.867zm-6.298 6.289l-4.398-4.397-2.074 2.074 4.398 4.398 2.074-2.075zm16.13-2.32l-2.074-2.074-4.397 4.397 2.074 2.074 4.397-4.397zM55.733 47.078a3.534 3.534 0 00-3.52-3.52h-7.626a3.534 3.534 0 00-3.52 3.52v7.627a3.534 3.534 0 003.52 3.52h7.626a3.534 3.534 0 003.52-3.52v-7.627zm-2.933 0v7.627a.587.587 0 01-.587.587h-7.626a.587.587 0 01-.587-.587v-7.627c0-.324.263-.586.587-.586h7.626c.324 0 .587.263.587.587zM22 25.959H0v2.933h22v-2.933zm4.4 5.866H13.2v2.933h13.2v-2.933zm-17.6 0H4.4v2.933h4.4v-2.933z" fill="#5FB5BF"/></svg>