<svg width="102" height="100" fill="none" xmlns="http://www.w3.org/2000/svg"><path d="M4.938 50.07c7.357-23.002 26.134-37.16 51.739-36.395 25.605.764 43.735 23.734 42.97 49.361-.765 25.628-46.02 35.585-71.626 34.821C2.415 97.093-3.352 75.988 4.938 50.07z" fill="#FFF3DB"/><path d="M50.313 50.364l-9.495-2.88-1.033-2.065a1.449 1.449 0 00-1.724-.736v-.36c3.932-2.84 6.6-7.327 6.979-12.442 1.842-.515 3.292-2.014 3.596-3.881a4.911 4.911 0 00-.631-3.303 5.745 5.745 0 003.087-5.088 5.74 5.74 0 00-2.712-4.856 4.888 4.888 0 00-4.745-6.033 4.85 4.85 0 00-1.826.357 15.038 15.038 0 00-10.186-3.93H24.76a15.087 15.087 0 00-10.186 3.93 4.853 4.853 0 00-1.826-.356 4.888 4.888 0 00-4.745 6.033 5.74 5.74 0 00-2.712 4.855 5.745 5.745 0 003.085 5.087c-.572.96-.82 2.12-.628 3.304.303 1.867 1.753 3.366 3.596 3.88.378 5.11 3.04 9.59 6.963 12.432v.366a1.45 1.45 0 00-1.708.74l-1.032 2.065-9.864 2.959A6.558 6.558 0 001 56.762v35.64a1.45 1.45 0 002.9 0v-35.64a3.8 3.8 0 01.014-.316l5.797 5.797a5.378 5.378 0 011.585 3.828v26.33a1.45 1.45 0 002.9 0v-26.33a8.26 8.26 0 00-2.435-5.879l-6.386-6.386a3.721 3.721 0 011.16-.586l6.535-1.96c.511 1.438 4.31 11.314 14.317 17.985a1.449 1.449 0 001.608 0C39.337 62.35 43.026 52.16 43.33 51.277l6.142 1.863a1.448 1.448 0 001.809-.967 1.45 1.45 0 00-.967-1.809zM38.49 49.32l-4.9 6.126a.251.251 0 01-.212.1.257.257 0 01-.209-.107l-2.776-3.702 7.445-3.723.653 1.306zm-10.3.275l-6.985-3.492v-.097a16.798 16.798 0 006.985 1.513c2.484 0 4.843-.54 6.97-1.507v.099l-6.97 3.484zm15.445-37.973c1.092 0 1.982.89 1.982 1.982 0 .388-.114.764-.33 1.09a1.45 1.45 0 00.82 2.198 2.84 2.84 0 012.084 2.719 2.843 2.843 0 01-2.84 2.84 2.843 2.843 0 01-2.84-2.84c0-.702.27-1.382.76-1.914a1.45 1.45 0 00-.46-2.299 1.987 1.987 0 01-1.158-1.794c0-1.092.889-1.982 1.982-1.982zM8.19 19.61a2.84 2.84 0 012.084-2.72 1.45 1.45 0 00.82-2.197 1.97 1.97 0 01-.33-1.09c0-1.092.89-1.981 1.983-1.981 1.092 0 1.982.889 1.982 1.981 0 .765-.455 1.47-1.159 1.794a1.45 1.45 0 00-.459 2.3c.49.531.76 1.21.76 1.913a2.843 2.843 0 01-2.84 2.84 2.843 2.843 0 01-2.84-2.84zm6.007 11.013c0-.8-.65-1.45-1.45-1.45-1.067 0-1.986-.704-2.138-1.639-.173-1.064.478-2.043 1.515-2.276.056-.013.11-.03.163-.048a5.75 5.75 0 004.484-5.6c0-.887-.208-1.753-.6-2.538a4.883 4.883 0 001.458-3.469c0-.979-.29-1.89-.789-2.656a12.199 12.199 0 017.919-2.899h6.864c2.94 0 5.71 1.02 7.922 2.896a4.85 4.85 0 00-.792 2.66c0 1.32.544 2.565 1.459 3.468-.393.785-.6 1.65-.6 2.538a5.75 5.75 0 004.64 5.633c.044.018.09.035.136.049a1.979 1.979 0 011.385 2.242c-.152.935-1.07 1.64-2.137 1.64a1.45 1.45 0 00-1.45 1.45c0 7.716-6.278 13.994-13.995 13.994-7.716 0-13.994-6.278-13.994-13.995zm3.887 18.309l.46-.919 7.444 3.723-2.776 3.702a.257.257 0 01-.209.106.242.242 0 01-.211-.1l-4.863-6.077c.075-.135.127-.282.155-.435zM28.19 66.278c-6.492-4.614-9.986-10.653-11.471-13.78l3.807 4.758a3.144 3.144 0 002.47 1.189h.052a3.145 3.145 0 002.483-1.267l1.209-1.611v5.945a1.45 1.45 0 002.9 0v-5.945l1.209 1.611a3.145 3.145 0 002.534 1.267c.967 0 1.865-.431 2.471-1.189l3.819-4.773c-1.473 3.119-4.957 9.16-11.483 13.795z" fill="#D0935A"/><path d="M32.537 34.645a1.45 1.45 0 00-2.04.213c-.617.76-1.436 1.18-2.306 1.18-.87 0-1.689-.42-2.305-1.18a1.45 1.45 0 10-2.253 1.827c1.161 1.431 2.823 2.252 4.559 2.252 1.735 0 3.396-.82 4.557-2.252a1.45 1.45 0 00-.212-2.04zm-11.21-8.905c-.801 0-1.45.65-1.45 1.45v1.717a1.45 1.45 0 002.9 0v-1.716c0-.801-.65-1.45-1.45-1.45zm13.728 0c-.8 0-1.45.65-1.45 1.45v1.717a1.45 1.45 0 002.9 0v-1.716a1.45 1.45 0 00-1.45-1.45zM49.81 57.055a1.45 1.45 0 00-2.052 0l-3.137 3.137a8.26 8.26 0 00-2.436 5.88v26.33a1.45 1.45 0 002.9 0v-26.33c0-1.447.564-2.806 1.587-3.829l3.137-3.137a1.45 1.45 0 000-2.051zm29.06-10.398a1.45 1.45 0 00-2.04.213c-.616.76-1.435 1.18-2.305 1.18-.87 0-1.69-.42-2.306-1.18a1.45 1.45 0 00-2.252 1.827c1.16 1.432 2.822 2.253 4.558 2.253 1.735 0 3.397-.821 4.558-2.253a1.45 1.45 0 00-.213-2.04zM59.08 72.074c-.8 0-1.45.65-1.45 1.45v18.877a1.45 1.45 0 002.9 0V73.525a1.45 1.45 0 00-1.45-1.45zm30.89 0c-.802 0-1.45.65-1.45 1.45v18.877a1.45 1.45 0 002.9 0V73.525c0-.801-.65-1.45-1.45-1.45z" fill="#D0935A"/><path d="M95.152 62.164a6.59 6.59 0 001.416-4.084 6.548 6.548 0 00-3.438-5.769 5.727 5.727 0 00-2.397-4.91c.099-.334.19-.671.268-1.012a16.26 16.26 0 00.364-2.662 20.196 20.196 0 003.487-11.388c0-11.208-9.119-20.327-20.327-20.327-11.209 0-20.327 9.119-20.327 20.327 0 4.091 1.204 8.02 3.487 11.388.056.96.176 1.834.364 2.662.077.34.169.677.267 1.012a5.727 5.727 0 00-2.397 4.91 6.548 6.548 0 00-3.437 5.769 6.59 6.59 0 001.416 4.084 9.974 9.974 0 00-4.848 8.59v21.648a1.45 1.45 0 002.9 0V70.753a7.096 7.096 0 014.482-6.62l.278-.11c4.289 5.796 10.897 9.236 17.815 9.236 7.013 0 13.476-3.36 17.814-9.237l.279.111a7.096 7.096 0 014.482 6.62v21.648a1.45 1.45 0 002.9 0V70.753a9.975 9.975 0 00-4.848-8.589zM57.098 32.34c0-9.609 7.818-17.426 17.427-17.426S91.95 22.73 91.95 32.339c0 2.444-.502 4.82-1.468 7.014-2.09-4.497-6.734-5.757-11.251-6.979-3.653-.988-7.43-2.01-10.666-4.6a1.45 1.45 0 00-2.203.484c-.015.03-1.534 3.017-4.5 4.5a1.45 1.45 0 101.298 2.594c2.36-1.18 3.986-3.054 4.903-4.352 3.378 2.27 7.09 3.275 10.41 4.174a72.64 72.64 0 013.01.866c-.032-.001-.063-.003-.095-.003a4.884 4.884 0 00-4.175 2.354 5.871 5.871 0 00-2.69-.638 5.87 5.87 0 00-2.688.638 4.885 4.885 0 00-4.175-2.354 4.888 4.888 0 00-4.883 4.883 4.888 4.888 0 004.883 4.882 4.889 4.889 0 004.851-4.341c.473-.503 1.213-.807 2.013-.807.8 0 1.54.303 2.012.807a4.889 4.889 0 004.852 4.34 4.888 4.888 0 004.882-4.881c0-1.41-.602-2.683-1.561-3.575 2.074 1.13 3.35 2.708 3.822 5.495-.024.097-.04.198-.043.302a13.952 13.952 0 01-.317 2.605 14.049 14.049 0 01-4.857 7.779 13.836 13.836 0 01-8.79 3.104 13.836 13.836 0 01-8.79-3.104 14.05 14.05 0 01-4.858-7.779 13.961 13.961 0 01-.316-2.602 1.445 1.445 0 00-.43-.98 17.314 17.314 0 01-3.033-9.826zm26.273 8.58c0 1.093-.89 1.982-1.982 1.982a1.984 1.984 0 01-1.982-1.982c0-1.092.89-1.982 1.982-1.982 1.093 0 1.982.89 1.982 1.982zm-13.729 0a1.984 1.984 0 01-1.981 1.982 1.984 1.984 0 01-1.982-1.982c0-1.092.889-1.982 1.981-1.982 1.093 0 1.982.89 1.982 1.982zm13.22 19.307a12.204 12.204 0 01-8.337 3.268c-3.13 0-6.081-1.176-8.337-3.268a4.855 4.855 0 002.17-1.866 16.923 16.923 0 006.167 1.17c2.12 0 4.213-.405 6.166-1.17a4.856 4.856 0 002.171 1.866zm-26.167.678a3.695 3.695 0 01-1.313-2.824c0-1.604 1.04-3.011 2.588-3.502a1.45 1.45 0 00.96-1.763 2.814 2.814 0 01-.116-.741c0-.673.236-1.303.643-1.8a16.996 16.996 0 004.454 5.507c.577.466 1.183.89 1.812 1.274a1.975 1.975 0 01-.758.541l-8.27 3.308zm17.83 9.454c-5.846 0-11.247-2.7-15.019-7.455L63.27 61.4a15.105 15.105 0 0011.256 4.995c4.329 0 8.377-1.809 11.255-4.996l3.765 1.506c-3.774 4.753-9.184 7.454-15.02 7.454zm17.83-9.454l-8.27-3.308a1.975 1.975 0 01-.759-.54c.63-.384 1.236-.81 1.812-1.275a16.998 16.998 0 004.454-5.507c.407.497.643 1.127.643 1.8 0 .214-.037.45-.116.74a1.45 1.45 0 00.96 1.764 3.672 3.672 0 012.588 3.502 3.695 3.695 0 01-1.312 2.824z" fill="#D0935A"/><path d="M4.938 50.07c7.357-23.002 26.134-37.16 51.739-36.395 25.605.764 43.735 23.734 42.97 49.361-.765 25.628-46.02 35.585-71.626 34.821C2.415 97.093-3.352 75.988 4.938 50.07z" fill="#FFF3DB"/><path d="M50.313 50.364l-9.495-2.88-1.033-2.065a1.449 1.449 0 00-1.724-.736v-.36c3.932-2.84 6.6-7.327 6.979-12.442 1.842-.515 3.292-2.014 3.596-3.881a4.911 4.911 0 00-.631-3.303 5.745 5.745 0 003.087-5.088 5.74 5.74 0 00-2.712-4.856 4.888 4.888 0 00-4.745-6.033 4.85 4.85 0 00-1.826.357 15.038 15.038 0 00-10.186-3.93H24.76a15.087 15.087 0 00-10.186 3.93 4.853 4.853 0 00-1.826-.356 4.888 4.888 0 00-4.745 6.033 5.74 5.74 0 00-2.712 4.855 5.745 5.745 0 003.085 5.087c-.572.96-.82 2.12-.628 3.304.303 1.867 1.753 3.366 3.596 3.88.378 5.11 3.04 9.59 6.963 12.432v.366a1.45 1.45 0 00-1.708.74l-1.032 2.065-9.864 2.959A6.558 6.558 0 001 56.762v35.64a1.45 1.45 0 002.9 0v-35.64a3.8 3.8 0 01.014-.316l5.797 5.797a5.378 5.378 0 011.585 3.828v26.33a1.45 1.45 0 002.9 0v-26.33a8.26 8.26 0 00-2.435-5.879l-6.386-6.386a3.721 3.721 0 011.16-.586l6.535-1.96c.511 1.438 4.31 11.314 14.317 17.985a1.449 1.449 0 001.608 0C39.337 62.35 43.026 52.16 43.33 51.277l6.142 1.863a1.448 1.448 0 001.809-.967 1.45 1.45 0 00-.967-1.809zM38.49 49.32l-4.9 6.126a.251.251 0 01-.212.1.257.257 0 01-.209-.107l-2.776-3.702 7.445-3.723.653 1.306zm-10.3.275l-6.985-3.492v-.097a16.798 16.798 0 006.985 1.513c2.484 0 4.843-.54 6.97-1.507v.099l-6.97 3.484zm15.445-37.973c1.092 0 1.982.89 1.982 1.982 0 .388-.114.764-.33 1.09a1.45 1.45 0 00.82 2.198 2.84 2.84 0 012.084 2.719 2.843 2.843 0 01-2.84 2.84 2.843 2.843 0 01-2.84-2.84c0-.702.27-1.382.76-1.914a1.45 1.45 0 00-.46-2.299 1.987 1.987 0 01-1.158-1.794c0-1.092.889-1.982 1.982-1.982zM8.19 19.61a2.84 2.84 0 012.084-2.72 1.45 1.45 0 00.82-2.197 1.97 1.97 0 01-.33-1.09c0-1.092.89-1.981 1.983-1.981 1.092 0 1.982.889 1.982 1.981 0 .765-.455 1.47-1.159 1.794a1.45 1.45 0 00-.459 2.3c.49.531.76 1.21.76 1.913a2.843 2.843 0 01-2.84 2.84 2.843 2.843 0 01-2.84-2.84zm6.007 11.013c0-.8-.65-1.45-1.45-1.45-1.067 0-1.986-.704-2.138-1.639-.173-1.064.478-2.043 1.515-2.276.056-.013.11-.03.163-.048a5.75 5.75 0 004.484-5.6c0-.887-.208-1.753-.6-2.538a4.883 4.883 0 001.458-3.469c0-.979-.29-1.89-.789-2.656a12.199 12.199 0 017.919-2.899h6.864c2.94 0 5.71 1.02 7.922 2.896a4.85 4.85 0 00-.792 2.66c0 1.32.544 2.565 1.459 3.468-.393.785-.6 1.65-.6 2.538a5.75 5.75 0 004.64 5.633c.044.018.09.035.136.049a1.979 1.979 0 011.385 2.242c-.152.935-1.07 1.64-2.137 1.64a1.45 1.45 0 00-1.45 1.45c0 7.716-6.278 13.994-13.995 13.994-7.716 0-13.994-6.278-13.994-13.995zm3.887 18.309l.46-.919 7.444 3.723-2.776 3.702a.257.257 0 01-.209.106.242.242 0 01-.211-.1l-4.863-6.077c.075-.135.127-.282.155-.435zM28.19 66.278c-6.492-4.614-9.986-10.653-11.471-13.78l3.807 4.758a3.144 3.144 0 002.47 1.189h.052a3.145 3.145 0 002.483-1.267l1.209-1.611v5.945a1.45 1.45 0 002.9 0v-5.945l1.209 1.611a3.145 3.145 0 002.534 1.267c.967 0 1.865-.431 2.471-1.189l3.819-4.773c-1.473 3.119-4.957 9.16-11.483 13.795z" fill="#D0935A"/><path d="M32.537 34.645a1.45 1.45 0 00-2.04.213c-.617.76-1.436 1.18-2.306 1.18-.87 0-1.689-.42-2.305-1.18a1.45 1.45 0 10-2.253 1.827c1.161 1.431 2.823 2.252 4.559 2.252 1.735 0 3.396-.82 4.557-2.252a1.45 1.45 0 00-.212-2.04zm-11.21-8.905c-.801 0-1.45.65-1.45 1.45v1.717a1.45 1.45 0 002.9 0v-1.716c0-.801-.65-1.45-1.45-1.45zm13.728 0c-.8 0-1.45.65-1.45 1.45v1.717a1.45 1.45 0 002.9 0v-1.716a1.45 1.45 0 00-1.45-1.45zM49.81 57.055a1.45 1.45 0 00-2.052 0l-3.137 3.137a8.26 8.26 0 00-2.436 5.88v26.33a1.45 1.45 0 002.9 0v-26.33c0-1.447.564-2.806 1.587-3.829l3.137-3.137a1.45 1.45 0 000-2.051zm29.06-10.398a1.45 1.45 0 00-2.04.213c-.616.76-1.435 1.18-2.305 1.18-.87 0-1.69-.42-2.306-1.18a1.45 1.45 0 00-2.252 1.827c1.16 1.432 2.822 2.253 4.558 2.253 1.735 0 3.397-.821 4.558-2.253a1.45 1.45 0 00-.213-2.04zM59.08 72.074c-.8 0-1.45.65-1.45 1.45v18.877a1.45 1.45 0 002.9 0V73.525a1.45 1.45 0 00-1.45-1.45zm30.89 0c-.802 0-1.45.65-1.45 1.45v18.877a1.45 1.45 0 002.9 0V73.525c0-.801-.65-1.45-1.45-1.45z" fill="#D0935A"/><path d="M95.152 62.164a6.59 6.59 0 001.416-4.084 6.548 6.548 0 00-3.438-5.769 5.727 5.727 0 00-2.397-4.91c.099-.334.19-.671.268-1.012a16.26 16.26 0 00.364-2.662 20.196 20.196 0 003.487-11.388c0-11.208-9.119-20.327-20.327-20.327-11.209 0-20.327 9.119-20.327 20.327 0 4.091 1.204 8.02 3.487 11.388.056.96.176 1.834.364 2.662.077.34.169.677.267 1.012a5.727 5.727 0 00-2.397 4.91 6.548 6.548 0 00-3.437 5.769 6.59 6.59 0 001.416 4.084 9.974 9.974 0 00-4.848 8.59v21.648a1.45 1.45 0 002.9 0V70.753a7.096 7.096 0 014.482-6.62l.278-.11c4.289 5.796 10.897 9.236 17.815 9.236 7.013 0 13.476-3.36 17.814-9.237l.279.111a7.096 7.096 0 014.482 6.62v21.648a1.45 1.45 0 002.9 0V70.753a9.975 9.975 0 00-4.848-8.589zM57.098 32.34c0-9.609 7.818-17.426 17.427-17.426S91.95 22.73 91.95 32.339c0 2.444-.502 4.82-1.468 7.014-2.09-4.497-6.734-5.757-11.251-6.979-3.653-.988-7.43-2.01-10.666-4.6a1.45 1.45 0 00-2.203.484c-.015.03-1.534 3.017-4.5 4.5a1.45 1.45 0 101.298 2.594c2.36-1.18 3.986-3.054 4.903-4.352 3.378 2.27 7.09 3.275 10.41 4.174a72.64 72.64 0 013.01.866c-.032-.001-.063-.003-.095-.003a4.884 4.884 0 00-4.175 2.354 5.871 5.871 0 00-2.69-.638 5.87 5.87 0 00-2.688.638 4.885 4.885 0 00-4.175-2.354 4.888 4.888 0 00-4.883 4.883 4.888 4.888 0 004.883 4.882 4.889 4.889 0 004.851-4.341c.473-.503 1.213-.807 2.013-.807.8 0 1.54.303 2.012.807a4.889 4.889 0 004.852 4.34 4.888 4.888 0 004.882-4.881c0-1.41-.602-2.683-1.561-3.575 2.074 1.13 3.35 2.708 3.822 5.495-.024.097-.04.198-.043.302a13.952 13.952 0 01-.317 2.605 14.049 14.049 0 01-4.857 7.779 13.836 13.836 0 01-8.79 3.104 13.836 13.836 0 01-8.79-3.104 14.05 14.05 0 01-4.858-7.779 13.961 13.961 0 01-.316-2.602 1.445 1.445 0 00-.43-.98 17.314 17.314 0 01-3.033-9.826zm26.273 8.58c0 1.093-.89 1.982-1.982 1.982a1.984 1.984 0 01-1.982-1.982c0-1.092.89-1.982 1.982-1.982 1.093 0 1.982.89 1.982 1.982zm-13.729 0a1.984 1.984 0 01-1.981 1.982 1.984 1.984 0 01-1.982-1.982c0-1.092.889-1.982 1.981-1.982 1.093 0 1.982.89 1.982 1.982zm13.22 19.307a12.204 12.204 0 01-8.337 3.268c-3.13 0-6.081-1.176-8.337-3.268a4.855 4.855 0 002.17-1.866 16.923 16.923 0 006.167 1.17c2.12 0 4.213-.405 6.166-1.17a4.856 4.856 0 002.171 1.866zm-26.167.678a3.695 3.695 0 01-1.313-2.824c0-1.604 1.04-3.011 2.588-3.502a1.45 1.45 0 00.96-1.763 2.814 2.814 0 01-.116-.741c0-.673.236-1.303.643-1.8a16.996 16.996 0 004.454 5.507c.577.466 1.183.89 1.812 1.274a1.975 1.975 0 01-.758.541l-8.27 3.308zm17.83 9.454c-5.846 0-11.247-2.7-15.019-7.455L63.27 61.4a15.105 15.105 0 0011.256 4.995c4.329 0 8.377-1.809 11.255-4.996l3.765 1.506c-3.774 4.753-9.184 7.454-15.02 7.454zm17.83-9.454l-8.27-3.308a1.975 1.975 0 01-.759-.54c.63-.384 1.236-.81 1.812-1.275a16.998 16.998 0 004.454-5.507c.407.497.643 1.127.643 1.8 0 .214-.037.45-.116.74a1.45 1.45 0 00.96 1.764 3.672 3.672 0 012.588 3.502 3.695 3.695 0 01-1.312 2.824z" fill="#D0935A"/></svg>