<svg width="98" height="85" fill="none" xmlns="http://www.w3.org/2000/svg"><path d="M95.053 47.077C88.386 70.289 70.04 85 44.423 85 18.808 85 0 62.581 0 36.942 0 11.304 44.938 0 70.555 0c25.617 0 32.011 20.923 24.498 47.077z" fill="#FFF3DB"/><g clip-path="url(#clip0)" fill="#D0935A"><path d="M83.875 31.798C78.285 13.943 59.217 3.965 41.358 9.552c-17.856 5.59-27.835 24.663-22.247 42.518l2.194-.687c-5.21-16.645 4.093-34.427 20.74-39.638 8.065-2.523 16.63-1.755 24.113 2.161 7.487 3.918 13 10.516 15.524 18.58 2.523 8.062 1.757 16.626-2.16 24.112-3.917 7.487-10.514 13-18.579 15.524-13.497 4.224-28.293-1.11-35.988-12.975l-1.929 1.251c6.361 9.81 17.248 15.457 28.535 15.456 3.356 0 6.75-.499 10.069-1.54 8.649-2.707 15.726-8.62 19.928-16.65s5.024-17.217 2.317-25.866z"/><path d="M44.832 24.092l.66-2.202-11.495-3.448a1.148 1.148 0 00-1.142.288l-2.299 2.299a1.15 1.15 0 00.346 1.863l10.345 4.598.933-2.101-8.815-3.919.63-.63 10.837 3.252z"/><path d="M55.509 17.245a1.15 1.15 0 00-1.15-1.15h-.002a9.407 9.407 0 00-6.695 2.774l-9.747 9.746-3.967-.992a1.15 1.15 0 00-1.092.302l-2.299 2.3a1.148 1.148 0 00.22 1.797l5.502 3.301 3.301 5.501a1.148 1.148 0 001.8.222l2.298-2.299c.285-.286.4-.7.302-1.092l-.99-3.962 9.902-9.804c1.69-1.77 2.62-4.093 2.617-6.644zM40.905 32.52a1.15 1.15 0 00-.306 1.095l.992 3.967-.798.797-2.691-4.485a1.145 1.145 0 00-.394-.394l-4.485-2.69.797-.798 3.967.992a1.15 1.15 0 001.092-.303l10.207-10.207a7.11 7.11 0 013.832-1.994 7.087 7.087 0 01-1.868 3.778L40.905 32.52z"/><path d="M53.16 37.756l-3.448-11.643-2.204.653 3.24 10.94-.698.616-3.832-8.89-2.112.91 4.46 10.346a1.15 1.15 0 001.816.407l2.437-2.15a1.15 1.15 0 00.341-1.189zM39.453 71.378c-8.187 3.88-14.609 4.38-17.615 1.375-5.212-5.212.448-20.353 13.164-35.222l-1.747-1.494C19.308 52.345 13.943 68.112 20.21 74.378 21.96 76.128 24.433 77 27.5 77c3.575 0 7.956-1.185 12.935-3.545l-.983-2.077zm38.909-23.642a1.15 1.15 0 00-1.014-.607H73.46l-3.13-6.261a1.151 1.151 0 00-1.03-.636H57.807a1.15 1.15 0 00-1.149 1.15v9.195c0 .636.514 1.15 1.15 1.15h3.448V64.37c0 .636.513 1.15 1.149 1.15h5.747c.305 0 .597-.121.814-.338l4.598-4.598c.216-.215.336-.507.336-.813v-4.25l4.405-6.606a1.15 1.15 0 00.058-1.18zm-6.57 6.8a1.156 1.156 0 00-.192.639v4.122l-3.925 3.924h-4.123V50.577c0-.636-.513-1.15-1.149-1.15h-3.448v-6.896h9.634l3.131 6.261c.196.39.593.636 1.029.636h2.45l-3.406 5.109zm7.371-16.603l-4.267-7.466a1.15 1.15 0 00-.998-.58h-6.896a1.15 1.15 0 00-.956.512l-1.958 2.937h-2.833v-5.747h5.747c.306 0 .597-.121.813-.337l4.26-4.261h5.272v-2.299H71.6c-.306 0-.597.12-.813.337l-4.26 4.26h-6.422a1.15 1.15 0 00-1.149 1.15v8.046c0 .635.514 1.15 1.15 1.15h4.597c.384 0 .743-.192.956-.512l1.958-2.937h5.615l4.267 7.467c.204.358.586.58.997.58h4.598v-2.3h-3.931z"/><path d="M50.91 49.428h-6.42l-3.112-3.112a1.146 1.146 0 00-.813-.337h-5.747a1.15 1.15 0 00-1.15 1.15v8.046c0 .636.516 1.15 1.15 1.15h4.598v11.493a1.15 1.15 0 001.839.92l4.598-3.448c.29-.218.46-.559.46-.92v-2.896l5.316-4.252a1.15 1.15 0 00.43-.898v-5.747a1.15 1.15 0 00-1.15-1.15zm-1.15 6.345l-5.316 4.251a1.15 1.15 0 00-.43.898v2.874l-2.3 1.724V55.175c0-.636-.514-1.15-1.149-1.15h-4.597v-5.747h4.121l3.112 3.112c.215.216.508.337.812.337h5.748v4.046zM27.757 32.744l-3.448-5.747a1.148 1.148 0 00-.985-.558h-1.15v2.3h.5l2.651 4.419-2.814 2.813a1.146 1.146 0 00-.336.813v3.448h-3.449v2.3h4.598a1.15 1.15 0 001.15-1.15V37.26l3.11-3.112a1.15 1.15 0 00.173-1.404zM53.21 9.198V10.6l-3.728.932a1.17 1.17 0 00-.358.159L46.23 13.62l-6.3-3.15-1.028 2.055 6.896 3.449a1.156 1.156 0 001.151-.073l3.283-2.188 4.406-1.101a1.15 1.15 0 00.87-1.115v-2.3H53.21z"/></g><defs><clipPath id="clip0"><path fill="#fff" transform="translate(17 8)" d="M0 0h69v69H0z"/></clipPath></defs></svg>