<svg width="112" height="112" fill="none" xmlns="http://www.w3.org/2000/svg"><path d="M30.375 24.816c18.137-10.055 38.19-7.87 53.716 7.656 15.526 15.526 13.31 40.54-2.26 56.11-15.57 15.569-49.67-4.803-65.197-20.329C1.108 52.727 9.94 36.145 30.374 24.816z" fill="#E7F1F2"/><path d="M56.236 44.304a442.962 442.962 0 00-5.312 7.104c-1.877 2.56-3.456 5.184-4.736 7.872h10.048V44.304zm9.344-11.648V59.28h4.736v7.808H65.58v9.92h-9.344v-9.92H37.1v-6.976c.939-1.877 2.112-3.99 3.52-6.336a121.68 121.68 0 014.672-7.296c1.75-2.517 3.584-4.97 5.504-7.36 1.92-2.39 3.84-4.544 5.76-6.464h9.024z" fill="#5FB5BF"/></svg>