<svg width="112" height="112" fill="none" xmlns="http://www.w3.org/2000/svg"><path d="M30.375 24.816c18.137-10.055 38.19-7.87 53.716 7.656 15.526 15.526 13.31 40.54-2.26 56.11-15.57 15.569-49.67-4.803-65.197-20.329C1.108 52.727 9.94 36.145 30.374 24.816z" fill="#E7F1F2"/><path d="M67.564 44.304c0 1.621-.32 3.179-.96 4.672a22.405 22.405 0 01-2.496 4.352 37.095 37.095 0 01-3.456 3.968 147.252 147.252 0 01-3.776 3.648c-.64.597-1.344 1.28-2.112 2.048a52.416 52.416 0 00-2.112 2.24 64.78 64.78 0 00-1.856 2.176c-.512.64-.832 1.173-.96 1.6h19.072v8H39.34c-.085-.47-.128-1.067-.128-1.792V73.68c0-2.048.32-3.925.96-5.632a21.328 21.328 0 012.624-4.736 30.222 30.222 0 013.584-4.16 351.75 351.75 0 004.032-3.84 1262.31 1262.31 0 012.88-2.752A41.052 41.052 0 0055.66 50c.683-.853 1.216-1.685 1.6-2.496.384-.853.576-1.707.576-2.56 0-1.877-.533-3.2-1.6-3.968-1.066-.768-2.389-1.152-3.968-1.152-1.152 0-2.24.192-3.264.576-.981.341-1.898.768-2.752 1.28-.81.47-1.514.96-2.112 1.472-.597.47-1.045.853-1.344 1.152l-4.736-6.656c1.878-1.75 4.054-3.179 6.528-4.288 2.518-1.152 5.206-1.728 8.064-1.728 2.603 0 4.843.299 6.72.896 1.878.597 3.414 1.45 4.608 2.56 1.238 1.067 2.134 2.39 2.688 3.968.598 1.536.896 3.285.896 5.248z" fill="#5FB5BF"/></svg>