<svg width="112" height="112" fill="none" xmlns="http://www.w3.org/2000/svg"><path d="M30.375 24.816c18.137-10.055 38.19-7.87 53.716 7.656 15.526 15.526 13.31 40.54-2.26 56.11-15.57 15.569-49.67-4.803-65.197-20.329C1.108 52.727 9.94 36.145 30.374 24.816z" fill="#E7F1F2"/><path d="M50.412 77.968a27.59 27.59 0 01-3.648-.256 33.722 33.722 0 01-3.712-.576 40.179 40.179 0 01-3.264-.832c-.981-.299-1.749-.576-2.304-.832l1.856-7.936c1.11.47 2.518.981 4.224 1.536 1.75.512 3.904.768 6.464.768 2.944 0 5.099-.555 6.464-1.664 1.366-1.11 2.048-2.603 2.048-4.48 0-1.152-.256-2.112-.768-2.88a5.055 5.055 0 00-1.984-1.92c-.853-.512-1.877-.853-3.072-1.024a20.383 20.383 0 00-3.712-.32h-3.712v-7.68h4.224c.939 0 1.835-.085 2.688-.256.896-.17 1.686-.448 2.368-.832a4.597 4.597 0 001.6-1.664c.427-.725.64-1.621.64-2.688 0-.81-.17-1.515-.512-2.112a4.45 4.45 0 00-1.344-1.472c-.512-.384-1.13-.661-1.856-.832a7.038 7.038 0 00-2.112-.32c-1.834 0-3.541.277-5.12.832a21.526 21.526 0 00-4.224 2.048L38.252 35.6a36.111 36.111 0 012.368-1.344c.939-.47 1.963-.896 3.072-1.28a28.253 28.253 0 013.52-.96 20.524 20.524 0 014.032-.384c2.603 0 4.843.32 6.72.96 1.92.597 3.499 1.472 4.736 2.624a10.25 10.25 0 012.752 3.968c.598 1.493.896 3.136.896 4.928 0 1.75-.49 3.456-1.472 5.12a9.774 9.774 0 01-3.968 3.712c2.304.939 4.075 2.347 5.312 4.224 1.28 1.835 1.92 4.053 1.92 6.656 0 2.048-.341 3.947-1.024 5.696-.682 1.707-1.749 3.2-3.2 4.48-1.45 1.237-3.306 2.219-5.568 2.944-2.218.683-4.864 1.024-7.936 1.024z" fill="#5FB5BF"/></svg>