<svg width="112" height="112" fill="none" xmlns="http://www.w3.org/2000/svg"><path d="M30.375 24.816c18.137-10.055 38.19-7.87 53.716 7.656 15.526 15.526 13.31 40.54-2.26 56.11-15.57 15.569-49.67-4.803-65.197-20.329C1.108 52.727 9.94 36.145 30.374 24.816z" fill="#E7F1F2"/><path d="M58.86 63.952c0-1.237-.277-2.325-.832-3.264-.554-.981-1.514-1.792-2.88-2.432-1.365-.64-3.2-1.13-5.504-1.472-2.304-.341-5.205-.512-8.704-.512.47-3.968.854-8 1.152-12.096.299-4.096.534-7.936.704-11.52h24v8h-16c-.085 1.536-.192 3.03-.32 4.48a64.113 64.113 0 01-.32 3.712c6.23.427 10.816 1.899 13.76 4.416 2.987 2.475 4.48 5.93 4.48 10.368 0 2.048-.362 3.947-1.088 5.696a12.252 12.252 0 01-3.264 4.544c-1.45 1.28-3.285 2.283-5.504 3.008-2.176.725-4.736 1.088-7.68 1.088a27.59 27.59 0 01-3.648-.256 34.189 34.189 0 01-3.648-.576 38.935 38.935 0 01-3.136-.704c-.938-.256-1.664-.512-2.176-.768l1.728-7.872c1.067.47 2.475.939 4.224 1.408 1.75.427 3.84.64 6.272.64 2.944 0 5.078-.576 6.4-1.728 1.323-1.195 1.984-2.581 1.984-4.16z" fill="#5FB5BF"/></svg>