<svg width="25" height="25" fill="none" xmlns="http://www.w3.org/2000/svg"><path d="M24.315 4.252a.776.776 0 00-.562-.24h-.018a2.99 2.99 0 01-2.182-.936 3.027 3.027 0 01-.844-2.262.775.775 0 00-.775-.814H5.066a.776.776 0 00-.775.814 3.028 3.028 0 01-.844 2.263 2.993 2.993 0 01-2.181.935H1.25a.776.776 0 00-.779.818C.74 9.78 2.606 18.967 12.09 24.881a.775.775 0 00.822 0C22.396 18.968 24.26 9.78 24.528 4.83a.776.776 0 00-.213-.577zM12.5 23.304C4.412 18.044 2.466 10.195 2.074 5.493a4.53 4.53 0 002.495-1.344 4.63 4.63 0 001.24-2.597h13.383a4.63 4.63 0 001.24 2.597 4.53 4.53 0 002.495 1.344c-.392 4.702-2.34 12.551-10.427 17.811z" fill="#F8BD7A"/><path d="M13.032 3.54a6.906 6.906 0 00-7.41 6.347 6.907 6.907 0 006.883 7.43c3.565 0 6.594-2.754 6.874-6.367a6.907 6.907 0 00-6.347-7.41zm4.8 7.29a5.355 5.355 0 01-5.744 4.92 5.353 5.353 0 01-4.92-5.744 5.354 5.354 0 015.744-4.919 5.353 5.353 0 014.92 5.744z" fill="#F8BD7A"/><path d="M15.075 8.252L11.4 11.4l-1.27-1.482a.776.776 0 10-1.178 1.01l1.774 2.07a.774.774 0 001.094.085l4.265-3.653a.776.776 0 10-1.01-1.178z" fill="#F8BD7A"/></svg>