<svg width="100" height="89" fill="none" xmlns="http://www.w3.org/2000/svg"><path d="M98.56 68.307c-7.732 26.647-23.77 21.812-53.427 16.646C26.089 81.636 0 70.85 0 41.417 0 11.983 15.43 0 45.133 0c29.703 0 62.138 38.282 53.427 68.307z" fill="#FFF3DB"/><g clip-path="url(#clip0)" fill="#D0935A"><path d="M42.89 56.424v4.474a1.374 1.374 0 01-1.2 1.373l-10.97 1.481a9.623 9.623 0 00-8.423 9.544V88h2.744V73.295a6.878 6.878 0 016.032-6.82l10.978-1.483a4.116 4.116 0 003.584-4.106v-4.462H42.89zm31.403 7.33L63.305 62.27a1.376 1.376 0 01-1.195-1.385v-4.462h-2.746v4.45a4.12 4.12 0 003.578 4.118l10.998 1.484a6.876 6.876 0 016.018 6.82V88h2.746V73.298c.003-4.844-3.618-8.947-8.41-9.544zm-6.691-33.415h-1.373v2.746h1.373a2.748 2.748 0 012.745 2.745 2.748 2.748 0 01-2.745 2.746h-1.373v2.746h1.373a5.497 5.497 0 005.491-5.492 5.497 5.497 0 00-5.491-5.491zm-30.204 2.746h1.373v-2.746h-1.373a5.497 5.497 0 00-5.491 5.491 5.497 5.497 0 005.491 5.492h1.373v-2.746h-1.373a2.748 2.748 0 01-2.745-2.746 2.749 2.749 0 012.745-2.745z"/><path d="M63.596 62.747l-.88 2.046a11.1 11.1 0 01-10.21 6.733h-.013c-4.45 0-8.456-2.643-10.209-6.733l-.878-2.046-2.524 1.084.879 2.044a13.832 13.832 0 0012.73 8.396h.016a13.84 13.84 0 0012.733-8.395l.879-2.046-2.523-1.083zM50.141 39.95l2.317-9.221-2.663-.669-2.745 10.93a1.375 1.375 0 001.331 1.706h5.492V39.95H50.14zm5.869 4.26a11.848 11.848 0 01-5.212 1.23H48.38v2.746h2.42a14.631 14.631 0 006.429-1.515l-1.22-2.46z"/><path d="M68.824 29.658l-5.492-9.61a1.376 1.376 0 00-1.627-.622L49.35 23.545c-3.857 1.286-11.842 1.302-11.922 1.302-.758 0-1.373.615-1.373 1.373v18.853a9.608 9.608 0 002.371 6.407l5.933 6.783a6.867 6.867 0 005.15 2.334h6.015a6.864 6.864 0 005.144-2.33l5.935-6.721a9.589 9.589 0 002.373-6.4l.03-14.804c0-.24-.062-.477-.181-.684zm-2.596 15.49v.015a6.847 6.847 0 01-1.688 4.57l-5.932 6.717a4.12 4.12 0 01-3.088 1.401h-6.012a4.116 4.116 0 01-3.087-1.398l-5.93-6.78a6.872 6.872 0 01-1.692-4.59v-17.51c2.575-.065 8.135-.33 11.417-1.424l11.286-3.763 4.753 8.315-.027 14.447z"/><path d="M68.712 15.638A13.415 13.415 0 0056.18 7h-22.9a1.374 1.374 0 00-1.304 1.808l2.396 7.184c-3.074 2.1-4.549 5.98-3.526 9.7l2.499 7.812 2.617-.838-2.483-7.757a6.107 6.107 0 013.16-7.07 1.371 1.371 0 00.69-1.663l-2.145-6.43h20.995a10.675 10.675 0 0110.123 7.3c.113.338.353.619.669.783l.39.203a6.103 6.103 0 013.261 6.67l-1.62 8.114 2.693.538 1.62-8.111c.784-3.877-1.115-7.812-4.602-9.605z"/><path d="M49.754 28.966H37.398c-.758 0-1.373.615-1.373 1.373v4.119a5.497 5.497 0 005.492 5.491h4.118a5.497 5.497 0 005.492-5.491v-4.12c0-.757-.615-1.372-1.373-1.372zm-1.373 5.492a2.749 2.749 0 01-2.745 2.745h-4.12a2.749 2.749 0 01-2.745-2.745v-2.746h9.61v2.746zm19.221-5.492H55.246c-.758 0-1.373.615-1.373 1.373v4.119a5.497 5.497 0 005.492 5.491h4.118a5.497 5.497 0 005.492-5.491v-4.12c0-.757-.614-1.372-1.373-1.372zm-1.373 5.492a2.749 2.749 0 01-2.746 2.745h-4.118a2.749 2.749 0 01-2.746-2.745v-2.746h9.61v2.746z"/><path d="M55.246 28.966h-5.492v2.746h5.492v-2.746z"/></g><path d="M98.56 68.307c-7.732 26.647-23.77 21.812-53.427 16.646C26.089 81.636 0 70.85 0 41.417 0 11.983 15.43 0 45.133 0c29.703 0 62.138 38.282 53.427 68.307z" fill="#FFF3DB"/><g clip-path="url(#clip1)" fill="#D0935A"><path d="M42.89 56.424v4.474a1.374 1.374 0 01-1.2 1.373l-10.97 1.481a9.623 9.623 0 00-8.423 9.544V88h2.744V73.295a6.878 6.878 0 016.032-6.82l10.978-1.483a4.116 4.116 0 003.584-4.106v-4.462H42.89zm31.403 7.33L63.305 62.27a1.376 1.376 0 01-1.195-1.385v-4.462h-2.746v4.45a4.12 4.12 0 003.578 4.118l10.998 1.484a6.876 6.876 0 016.018 6.82V88h2.746V73.298c.003-4.844-3.618-8.947-8.41-9.544zm-6.691-33.415h-1.373v2.746h1.373a2.748 2.748 0 012.745 2.745 2.748 2.748 0 01-2.745 2.746h-1.373v2.746h1.373a5.497 5.497 0 005.491-5.492 5.497 5.497 0 00-5.491-5.491zm-30.204 2.746h1.373v-2.746h-1.373a5.497 5.497 0 00-5.491 5.491 5.497 5.497 0 005.491 5.492h1.373v-2.746h-1.373a2.748 2.748 0 01-2.745-2.746 2.749 2.749 0 012.745-2.745z"/><path d="M63.596 62.747l-.88 2.046a11.1 11.1 0 01-10.21 6.733h-.013c-4.45 0-8.456-2.643-10.209-6.733l-.878-2.046-2.524 1.084.879 2.044a13.832 13.832 0 0012.73 8.396h.016a13.84 13.84 0 0012.733-8.395l.879-2.046-2.523-1.083zM50.141 39.95l2.317-9.221-2.663-.669-2.745 10.93a1.375 1.375 0 001.331 1.706h5.492V39.95H50.14zm5.869 4.26a11.848 11.848 0 01-5.212 1.23H48.38v2.746h2.42a14.631 14.631 0 006.429-1.515l-1.22-2.46z"/><path d="M68.824 29.658l-5.492-9.61a1.376 1.376 0 00-1.627-.622L49.35 23.545c-3.857 1.286-11.842 1.302-11.922 1.302-.758 0-1.373.615-1.373 1.373v18.853a9.608 9.608 0 002.371 6.407l5.933 6.783a6.867 6.867 0 005.15 2.334h6.015a6.864 6.864 0 005.144-2.33l5.935-6.721a9.589 9.589 0 002.373-6.4l.03-14.804c0-.24-.062-.477-.181-.684zm-2.596 15.49v.015a6.847 6.847 0 01-1.688 4.57l-5.932 6.717a4.12 4.12 0 01-3.088 1.401h-6.012a4.116 4.116 0 01-3.087-1.398l-5.93-6.78a6.872 6.872 0 01-1.692-4.59v-17.51c2.575-.065 8.135-.33 11.417-1.424l11.286-3.763 4.753 8.315-.027 14.447z"/><path d="M68.712 15.638A13.415 13.415 0 0056.18 7h-22.9a1.374 1.374 0 00-1.304 1.808l2.396 7.184c-3.074 2.1-4.549 5.98-3.526 9.7l2.499 7.812 2.617-.838-2.483-7.757a6.107 6.107 0 013.16-7.07 1.371 1.371 0 00.69-1.663l-2.145-6.43h20.995a10.675 10.675 0 0110.123 7.3c.113.338.353.619.669.783l.39.203a6.103 6.103 0 013.261 6.67l-1.62 8.114 2.693.538 1.62-8.111c.784-3.877-1.115-7.812-4.602-9.605z"/><path d="M49.754 28.966H37.398c-.758 0-1.373.615-1.373 1.373v4.119a5.497 5.497 0 005.492 5.491h4.118a5.497 5.497 0 005.492-5.491v-4.12c0-.757-.615-1.372-1.373-1.372zm-1.373 5.492a2.749 2.749 0 01-2.745 2.745h-4.12a2.749 2.749 0 01-2.745-2.745v-2.746h9.61v2.746zm19.221-5.492H55.246c-.758 0-1.373.615-1.373 1.373v4.119a5.497 5.497 0 005.492 5.491h4.118a5.497 5.497 0 005.492-5.491v-4.12c0-.757-.614-1.372-1.373-1.372zm-1.373 5.492a2.749 2.749 0 01-2.746 2.745h-4.118a2.749 2.749 0 01-2.746-2.745v-2.746h9.61v2.746z"/><path d="M55.246 28.966h-5.492v2.746h5.492v-2.746z"/></g><defs><clipPath id="clip0"><path fill="#fff" transform="translate(12 7)" d="M0 0h81v81H0z"/></clipPath><clipPath id="clip1"><path fill="#fff" transform="translate(12 7)" d="M0 0h81v81H0z"/></clipPath></defs></svg>